<?xml version="1.0" standalone="no"?>
<!DOCTYPE svg PUBLIC "-//W3C//DTD SVG 20010904//EN"
 "http://www.w3.org/TR/2001/REC-SVG-20010904/DTD/svg10.dtd">
<svg version="1.0" xmlns="http://www.w3.org/2000/svg"
 width="300.000000pt" height="85.000000pt" viewBox="0 0 300.000000 85.000000"
 preserveAspectRatio="xMidYMid meet">
<metadata>
Created by potrace 1.16, written by Peter Selinger 2001-2019
</metadata>
<g transform="translate(0.000000,85.000000) scale(0.100000,-0.100000)"
fill="#000000" stroke="none">
<path d="M356 509 c-48 -83 -85 -153 -82 -156 3 -3 47 11 98 32 113 44 158 83
158 134 0 40 -53 141 -73 141 -7 0 -52 -68 -101 -151z"/>
<path d="M1700 559 l0 -81 -31 26 c-78 66 -199 -3 -199 -113 0 -109 107 -184
192 -134 32 18 33 18 52 0 10 -10 21 -15 25 -11 3 5 5 96 3 202 -3 182 -5 192
-23 192 -17 0 -19 -8 -19 -81z m-31 -98 c26 -24 31 -36 31 -76 0 -38 -5 -52
-29 -76 -34 -34 -64 -37 -108 -9 -57 34 -61 121 -8 168 36 31 76 28 114 -7z"/>
<path d="M2430 460 c0 -167 1 -181 20 -200 21 -21 32 -23 68 -14 13 4 22 14
22 26 0 14 -5 18 -15 14 -8 -3 -22 -3 -30 0 -13 5 -15 35 -15 180 l0 174 -25
0 -25 0 0 -180z"/>
<path d="M897 588 c-100 -237 -137 -327 -137 -332 0 -3 11 -6 24 -6 19 0 27
10 43 53 l20 52 84 0 83 0 21 -52 c16 -42 24 -53 42 -53 13 0 23 3 23 8 0 4
-33 86 -73 182 -60 144 -76 176 -94 178 -17 3 -26 -5 -36 -30z"/>
<path d="M1189 444 c-41 -97 -75 -181 -77 -185 -2 -5 7 -9 21 -9 21 0 28 9 47
55 l22 55 82 0 81 0 21 -53 c17 -42 27 -53 48 -55 l25 -3 -55 133 c-31 73 -65
157 -76 186 -16 41 -25 52 -43 52 -19 0 -32 -23 -96 -176z"/>
<path d="M1865 511 c-46 -27 -67 -67 -67 -122 0 -93 64 -155 151 -146 46 5 94
34 99 61 5 22 -24 21 -55 -4 -28 -22 -73 -26 -104 -10 -16 9 -49 58 -49 75 0
3 52 5 115 5 l115 0 0 33 c0 97 -120 161 -205 108z"/>
<path d="M2170 508 c-90 -61 -91 -185 -1 -245 106 -71 241 39 203 166 -27 88
-129 128 -202 79z m125 -40 c31 -28 44 -73 34 -114 -11 -40 -38 -63 -82 -71
-31 -5 -40 -1 -67 25 -87 87 23 240 115 160z"/>
<path d="M2610 514 c-42 -18 -42 -18 -35 -37 6 -13 11 -13 49 4 52 22 101 12
111 -24 17 -58 18 -55 -25 -47 -67 12 -131 -8 -149 -46 -18 -40 -13 -63 18
-95 35 -34 79 -38 131 -11 34 16 36 16 53 -1 10 -10 22 -15 26 -13 11 7 2 181
-11 224 -17 57 -94 78 -168 46z"/>
<path d="M530 438 c-21 -135 -21 -144 -10 -173 23 -62 46 -75 127 -75 65 0 73
2 73 19 0 20 -160 301 -172 301 -3 0 -11 -33 -18 -72z"/>
<path d="M280 337 c-28 -14 -90 -103 -90 -129 0 -17 15 -18 175 -18 96 0 175
4 175 9 0 15 -142 124 -179 137 -45 16 -50 16 -81 1z"/>
</g>
</svg>
